<svg data-v-fde0c5aa="" xmlns="http://www.w3.org/2000/svg" viewBox="0 0 300 300" class="iconAbove"><!----><defs data-v-fde0c5aa=""><!----></defs><rect data-v-fde0c5aa="" fill="transparent" x="0" y="0" width="300px" height="300px" class="logo-background-square"></rect><defs data-v-fde0c5aa=""><!----></defs><g data-v-fde0c5aa="" id="cdbce0cb-33aa-4649-8b8f-e5172482b353" fill="#FFFFFF" transform="matrix(3.788430867044094,0,0,3.788430867044094,17.499635528395345,172.35421826439105)"><path d="M4.93 6.85L4.93 5.28L8.61 5.28L8.61 9.84L8.61 9.84Q8.27 10.02 7.81 10.17L7.81 10.17L7.81 10.17Q7.35 10.32 6.85 10.42L6.85 10.42L6.85 10.42Q6.36 10.53 5.87 10.59L5.87 10.59L5.87 10.59Q5.39 10.65 5.03 10.65L5.03 10.65L5.03 10.65Q4.35 10.65 3.59 10.45L3.59 10.45L3.59 10.45Q2.83 10.25 2.18 9.72L2.18 9.72L2.18 9.72Q1.53 9.20 1.09 8.28L1.09 8.28L1.09 8.28Q0.66 7.36 0.66 5.92L0.66 5.92L0.66 5.92Q0.66 4.47 1.08 3.54L1.08 3.54L1.08 3.54Q1.50 2.62 2.18 2.10L2.18 2.10L2.18 2.10Q2.87 1.58 3.76 1.39L3.76 1.39L3.76 1.39Q4.65 1.20 5.60 1.20L5.60 1.20L5.60 1.20Q6.03 1.20 6.52 1.27L6.52 1.27L6.52 1.27Q7 1.33 7.40 1.40L7.40 1.40L7.40 1.40Q7.80 1.47 8.06 1.54L8.06 1.54L8.06 1.54Q8.32 1.61 8.32 1.61L8.32 1.61L8.32 3.19L8.32 3.19Q8.32 3.19 8.08 3.13L8.08 3.13L8.08 3.13Q7.84 3.07 7.45 3.00L7.45 3.00L7.45 3.00Q7.06 2.93 6.57 2.86L6.57 2.86L6.57 2.86Q6.09 2.80 5.60 2.80L5.60 2.80L5.60 2.80Q4.91 2.80 4.38 2.94L4.38 2.94L4.38 2.94Q3.84 3.08 3.46 3.44L3.46 3.44L3.46 3.44Q3.09 3.79 2.90 4.40L2.90 4.40L2.90 4.40Q2.70 5.00 2.70 5.92L2.70 5.92L2.70 5.92Q2.70 6.75 2.87 7.33L2.87 7.33L2.87 7.33Q3.04 7.91 3.35 8.27L3.35 8.27L3.35 8.27Q3.65 8.64 4.08 8.81L4.08 8.81L4.08 8.81Q4.51 8.99 5.03 8.99L5.03 8.99L5.03 8.99Q5.56 8.99 5.89 8.94L5.89 8.94L5.89 8.94Q6.23 8.89 6.43 8.82L6.43 8.82L6.43 8.82Q6.66 8.75 6.78 8.65L6.78 8.65L6.78 6.85L4.93 6.85ZM13.26 3.12L13.26 3.12L13.26 3.12Q13.72 3.12 14.25 3.27L14.25 3.27L14.25 3.27Q14.78 3.42 15.25 3.75L15.25 3.75L15.25 3.75Q15.71 4.07 16.00 4.59L16.00 4.59L16.00 4.59Q16.30 5.11 16.28 5.85L16.28 5.85L16.28 10.50L14.91 10.50L14.91 10.50Q14.91 10.50 14.87 10.33L14.87 10.33L14.87 10.33Q14.83 10.16 14.78 9.95L14.78 9.95L14.78 9.95Q14.73 9.74 14.69 9.58L14.69 9.58L14.69 9.58Q14.64 9.42 14.64 9.44L14.64 9.44L14.64 9.44Q14.45 9.79 14.13 10.05L14.13 10.05L14.13 10.05Q13.85 10.29 13.41 10.47L13.41 10.47L13.41 10.47Q12.96 10.65 12.32 10.65L12.32 10.65L12.32 10.65Q11.87 10.65 11.44 10.52L11.44 10.52L11.44 10.52Q11.00 10.39 10.66 10.13L10.66 10.13L10.66 10.13Q10.32 9.87 10.10 9.48L10.10 9.48L10.10 9.48Q9.88 9.09 9.87 8.57L9.87 8.57L9.87 8.57Q9.84 8.02 10.02 7.59L10.02 7.59L10.02 7.59Q10.19 7.17 10.52 6.86L10.52 6.86L10.52 6.86Q10.85 6.55 11.31 6.36L11.31 6.36L11.31 6.36Q11.77 6.17 12.32 6.10L12.32 6.10L12.32 6.10Q12.84 6.03 13.45 6.03L13.45 6.03L13.45 6.03Q14.07 6.03 14.56 6.06L14.56 6.06L14.56 5.84L14.56 5.84Q14.56 5.24 14.29 4.93L14.29 4.93L14.29 4.93Q14.03 4.63 13.63 4.54L13.63 4.54L13.63 4.54Q13.23 4.45 12.75 4.52L12.75 4.52L12.75 4.52Q12.28 4.59 11.84 4.72L11.84 4.72L11.84 4.72Q11.41 4.86 11.08 5.00L11.08 5.00L11.08 5.00Q10.75 5.15 10.67 5.22L10.67 5.22L10.67 3.81L10.67 3.81Q10.68 3.79 10.92 3.69L10.92 3.69L10.92 3.69Q11.16 3.58 11.52 3.46L11.52 3.46L11.52 3.46Q11.89 3.33 12.34 3.23L12.34 3.23L12.34 3.23Q12.80 3.12 13.26 3.12ZM14.15 8.68L14.15 8.68L14.15 8.68Q14.39 8.37 14.47 7.99L14.47 7.99L14.47 7.99Q14.55 7.62 14.55 7.20L14.55 7.20L13.73 7.20L13.73 7.20Q13.41 7.20 13.05 7.24L13.05 7.24L13.05 7.24Q12.68 7.28 12.38 7.41L12.38 7.41L12.38 7.41Q12.07 7.53 11.86 7.78L11.86 7.78L11.86 7.78Q11.65 8.02 11.65 8.44L11.65 8.44L11.65 8.44Q11.65 8.90 11.99 9.11L11.99 9.11L11.99 9.11Q12.33 9.32 12.84 9.32L12.84 9.32L12.84 9.32Q13.27 9.32 13.60 9.15L13.60 9.15L13.60 9.15Q13.93 8.97 14.15 8.68ZM26.29 3.12L26.29 3.12L26.29 3.12Q27.05 3.12 27.50 3.39L27.50 3.39L27.50 3.39Q27.96 3.65 28.20 4.09L28.20 4.09L28.20 4.09Q28.43 4.52 28.51 5.08L28.51 5.08L28.51 5.08Q28.59 5.64 28.59 6.24L28.59 6.24L28.59 10.50L26.71 10.50L26.71 10.49L26.70 6.19L26.70 6.19Q26.70 5.84 26.66 5.54L26.66 5.54L26.66 5.54Q26.61 5.25 26.50 5.04L26.50 5.04L26.50 5.04Q26.38 4.83 26.17 4.71L26.17 4.71L26.17 4.71Q25.96 4.59 25.63 4.59L25.63 4.59L25.63 4.59Q25.21 4.59 24.93 4.79L24.93 4.79L24.93 4.79Q24.65 4.98 24.50 5.29L24.50 5.29L24.50 5.29Q24.35 5.59 24.28 5.94L24.28 5.94L24.28 5.94Q24.22 6.29 24.22 6.59L24.22 6.59L24.22 10.50L22.37 10.50L22.37 10.49L22.36 10.49L22.36 6.19L22.36 6.19Q22.36 5.84 22.31 5.54L22.31 5.54L22.31 5.54Q22.26 5.25 22.13 5.03L22.13 5.03L22.13 5.03Q22.01 4.82 21.78 4.70L21.78 4.70L21.78 4.70Q21.56 4.58 21.21 4.58L21.21 4.58L21.21 4.58Q20.82 4.58 20.57 4.77L20.57 4.77L20.57 4.77Q20.31 4.97 20.16 5.27L20.16 5.27L20.16 5.27Q20.01 5.57 19.94 5.93L19.94 5.93L19.94 5.93Q19.88 6.29 19.88 6.59L19.88 6.59L19.88 10.50L18.00 10.50L18.00 3.29L19.42 3.29L19.73 4.40L19.73 4.40Q19.73 4.40 19.85 4.20L19.85 4.20L19.85 4.20Q19.98 4.00 20.23 3.77L20.23 3.77L20.23 3.77Q20.48 3.53 20.87 3.33L20.87 3.33L20.87 3.33Q21.25 3.12 21.78 3.12L21.78 3.12L21.78 3.12Q22.48 3.12 22.92 3.32L22.92 3.32L22.92 3.32Q23.35 3.51 23.60 3.75L23.60 3.75L23.60 3.75Q23.90 4.03 24.04 4.38L24.04 4.38L24.04 4.38Q24.07 4.34 24.19 4.14L24.19 4.14L24.19 4.14Q24.32 3.95 24.58 3.72L24.58 3.72L24.58 3.72Q24.85 3.49 25.27 3.30L25.27 3.30L25.27 3.30Q25.69 3.12 26.29 3.12ZM33.98 10.65L33.98 10.65L33.98 10.65Q32.82 10.65 32.06 10.35L32.06 10.35L32.06 10.35Q31.30 10.04 30.85 9.52L30.85 9.52L30.85 9.52Q30.39 9.00 30.21 8.32L30.21 8.32L30.21 8.32Q30.03 7.64 30.03 6.89L30.03 6.89L30.03 6.89Q30.03 6.22 30.21 5.54L30.21 5.54L30.21 5.54Q30.39 4.87 30.79 4.33L30.79 4.33L30.79 4.33Q31.19 3.79 31.84 3.46L31.84 3.46L31.84 3.46Q32.48 3.12 33.40 3.12L33.40 3.12L33.40 3.12Q34.38 3.12 35.04 3.46L35.04 3.46L35.04 3.46Q35.69 3.79 36.08 4.33L36.08 4.33L36.08 4.33Q36.47 4.87 36.63 5.54L36.63 5.54L36.63 5.54Q36.79 6.22 36.79 6.89L36.79 6.89L36.79 7.52L31.84 7.52L31.84 7.52Q31.84 8.27 32.38 8.76L32.38 8.76L32.38 8.76Q32.91 9.25 33.85 9.25L33.85 9.25L33.85 9.25Q34.38 9.25 34.83 9.14L34.83 9.14L34.83 9.14Q35.28 9.03 35.60 8.89L35.60 8.89L35.60 8.89Q35.97 8.74 36.27 8.53L36.27 8.53L36.27 10.09L36.27 10.09Q36.27 10.11 36.09 10.19L36.09 10.19L36.09 10.19Q35.91 10.28 35.60 10.38L35.60 10.38L35.60 10.38Q35.29 10.49 34.87 10.57L34.87 10.57L34.87 10.57Q34.45 10.65 33.98 10.65ZM31.84 6.19L35.01 6.19L35.01 6.19Q35.01 5.95 34.95 5.66L34.95 5.66L34.95 5.66Q34.89 5.38 34.71 5.12L34.71 5.12L34.71 5.12Q34.54 4.87 34.22 4.70L34.22 4.70L34.22 4.70Q33.91 4.54 33.40 4.54L33.40 4.54L33.40 4.54Q32.97 4.54 32.67 4.70L32.67 4.70L32.67 4.70Q32.37 4.87 32.19 5.12L32.19 5.12L32.19 5.12Q32.00 5.38 31.92 5.66L31.92 5.66L31.92 5.66Q31.84 5.95 31.84 6.19L31.84 6.19ZM42.70 3.18L42.70 5.10L42.70 5.10Q42.38 5.03 42.12 5.02L42.12 5.02L42.12 5.02Q41.86 5.01 41.64 5.03L41.64 5.03L41.64 5.03Q41.19 5.05 40.90 5.22L40.90 5.22L40.90 5.22Q40.61 5.39 40.46 5.66L40.46 5.66L40.46 5.66Q40.31 5.94 40.25 6.28L40.25 6.28L40.25 6.28Q40.19 6.62 40.19 6.99L40.19 6.99L40.19 10.50L38.30 10.50L38.30 3.36L39.69 3.36L39.98 4.93L39.98 4.93Q39.98 4.93 40.02 4.77L40.02 4.77L40.02 4.77Q40.05 4.61 40.16 4.38L40.16 4.38L40.16 4.38Q40.26 4.14 40.46 3.88L40.46 3.88L40.46 3.88Q40.66 3.63 40.96 3.43L40.96 3.43L40.96 3.43Q41.26 3.23 41.69 3.15L41.69 3.15L41.69 3.15Q42.11 3.07 42.70 3.18L42.70 3.18ZM49.59 1.36L51.55 1.36L51.55 10.50L49.59 10.50L49.59 6.57L45.98 6.57L45.98 10.50L44.03 10.50L44.03 1.36L45.98 1.36L45.98 5.01L49.59 5.01L49.59 1.36ZM56.24 10.65L56.24 10.65L56.24 10.65Q55.58 10.65 55.10 10.49L55.10 10.49L55.10 10.49Q54.61 10.32 54.29 9.93L54.29 9.93L54.29 9.93Q53.97 9.55 53.81 8.94L53.81 8.94L53.81 8.94Q53.65 8.33 53.65 7.45L53.65 7.45L53.65 3.29L55.52 3.29L55.52 7.20L55.52 7.20Q55.52 8.23 55.80 8.71L55.80 8.71L55.80 8.71Q56.08 9.20 56.77 9.20L56.77 9.20L56.77 9.20Q57.60 9.20 58.00 8.52L58.00 8.52L58.00 8.52Q58.39 7.84 58.39 6.72L58.39 6.72L58.39 3.29L60.27 3.29L60.27 10.50L58.84 10.50L58.46 9.51L58.46 9.51Q58.46 9.51 58.32 9.68L58.32 9.68L58.32 9.68Q58.18 9.86 57.90 10.07L57.90 10.07L57.90 10.07Q57.62 10.29 57.21 10.47L57.21 10.47L57.21 10.47Q56.80 10.65 56.24 10.65ZM66.28 3.12L66.28 3.12L66.28 3.12Q67.10 3.12 67.68 3.44L67.68 3.44L67.68 3.44Q68.25 3.75 68.61 4.28L68.61 4.28L68.61 4.28Q68.96 4.80 69.13 5.49L69.13 5.49L69.13 5.49Q69.29 6.17 69.29 6.93L69.29 6.93L69.29 6.93Q69.29 7.69 69.13 8.37L69.13 8.37L69.13 8.37Q68.96 9.04 68.61 9.55L68.61 9.55L68.61 9.55Q68.25 10.05 67.68 10.35L67.68 10.35L67.68 10.35Q67.10 10.65 66.28 10.65L66.28 10.65L66.28 10.65Q65.67 10.65 65.25 10.48L65.25 10.48L65.25 10.48Q64.83 10.30 64.55 10.09L64.55 10.09L64.55 10.09Q64.23 9.84 64.02 9.53L64.02 9.53L63.66 10.50L62.20 10.50L62.20 1.55L64.08 1.55L64.08 4.21L64.08 4.21Q64.32 3.92 64.64 3.67L64.64 3.67L64.64 3.67Q64.92 3.47 65.32 3.30L65.32 3.30L65.32 3.30Q65.73 3.12 66.28 3.12ZM65.69 9.18L65.69 9.18L65.69 9.18Q66.02 9.18 66.32 9.05L66.32 9.05L66.32 9.05Q66.61 8.92 66.83 8.64L66.83 8.64L66.83 8.64Q67.05 8.36 67.18 7.93L67.18 7.93L67.18 7.93Q67.31 7.50 67.31 6.93L67.31 6.93L67.31 6.93Q67.31 6.36 67.18 5.92L67.18 5.92L67.18 5.92Q67.05 5.47 66.83 5.18L66.83 5.18L66.83 5.18Q66.61 4.89 66.32 4.73L66.32 4.73L66.32 4.73Q66.02 4.58 65.69 4.58L65.69 4.58L65.69 4.58Q65.02 4.58 64.55 5.18L64.55 5.18L64.55 5.18Q64.08 5.78 64.08 6.93L64.08 6.93L64.08 6.93Q64.08 8.09 64.55 8.64L64.55 8.64L64.55 8.64Q65.02 9.18 65.69 9.18Z"></path></g><defs data-v-fde0c5aa=""><linearGradient data-v-fde0c5aa="" gradientTransform="rotate(25)" id="f71fcf0c-8669-4216-8182-d946e16e207d" x1="0%" y1="0%" x2="100%" y2="0%"><stop data-v-fde0c5aa="" offset="0%" stop-color="#77E1F4" stop-opacity="1"></stop><stop data-v-fde0c5aa="" offset="100%" stop-color="#2C4882" stop-opacity="1"></stop></linearGradient></defs><g data-v-fde0c5aa="" id="3b2db291-f7a9-4e50-9c57-905089c1db9b" stroke="none" fill="url(#f71fcf0c-8669-4216-8182-d946e16e207d)" transform="matrix(1.5253800216849034,0,0,1.5253800216849034,73.73100327990208,46.51338410644851)"><path d="M81.85 33.438v-3.34h-6.7v-3.36h-13.4v10.06H38.279v-10.06H24.87v3.36h-6.7v3.34H14.8v30.17h3.37v6.7h3.34v3.37h13.4v-10.07h-3.341v-16.77h3.341v-3.34h6.71v3.34h3.359v6.71H55.04v-6.71h3.34v-3.34h6.71v3.34h3.36v16.77h-3.36v10.07h13.4v-3.37h3.359v-6.7H85.2v-30.17h-3.35zm-50.281 6.701v3.36H28.21v-3.36h-3.34v-3.34h3.34v-3.36h3.359v3.36h3.341v3.34h-3.341zm33.521 0v-3.34h3.36v-3.36h3.34v3.36h3.359v3.34H71.79v3.36h-3.34v-3.36h-3.36z"></path><path d="M68.45 36.798h3.34v3.34h-3.34zM58.38 46.838h6.71v6.71h-6.71zM41.62 26.738h16.76v6.7H41.62zM34.91 46.838h6.71v6.71h-6.71z"></path></g><!----></svg>